PathFileType	4	(X/Y/Z)	Patient4_TMGait_0pt5_01_left_09.trc.trc
DataRate	CameraRate	NumFrames	NumMarkers	Units	OrigDataRate	OrigDataStartFrame	OrigNumFrames
76.502732240437	76.502732240437	4	33	mm	76.502732240437	53	       141
Frame#	Time	L.ASIS			Sacral			L.Shoulder			Chest			R.Shoulder			Neck			R.ASIS			R.Thigh.Superior			R.Thigh.Lateral			R.Thigh.Inferior			R.Patella			L.Thigh.Superior			L.Thigh.Lateral			L.Thigh.Inferior			L.Patella			L.Shank.Superior			L.Shank.Lateral			L.Shank.Inferior			R.Shank.Superior			R.Shank.Lateral			R.Shank.Inferior			R.Heel			R.Midfoot.Superior			R.Midfoot.Lateral			R.Toe			L.Heel			L.Midfoot.Lateral			L.Midfoot.Superior			L.Toe			L.Elbow			L.Wrist			R.Elbow			R.Wrist			
		X1	Y1	Z1	X2	Y2	Z2	X3	Y3	Z3	X4	Y4	Z4	X5	Y5	Z5	X6	Y6	Z6	X7	Y7	Z7	X8	Y8	Z8	X9	Y9	Z9	X10	Y10	Z10	X11	Y11	Z11	X12	Y12	Z12	X13	Y13	Z13	X14	Y14	Z14	X15	Y15	Z15	X16	Y16	Z16	X17	Y17	Z17	X18	Y18	Z18	X19	Y19	Z19	X20	Y20	Z20	X21	Y21	Z21	X22	Y22	Z22	X23	Y23	Z23	X24	Y24	Z24	X25	Y25	Z25	X26	Y26	Z26	X27	Y27	Z27	X28	Y28	Z28	X29	Y29	Z29	X30	Y30	Z30	X31	Y31	Z31	X32	Y32	Z32	X33	Y33	Z33	

53	12.779714285714	713.352172475093	962.382072869847	275.928004688309	505.778396115426	1006.264576781922	444.056081261293	669.645495020556	1441.887184413747	270.826130629141	780.835236279192	1364.118433648570	423.118567609470	706.295507675727	1430.984811361669	604.993523110641	677.386670405699	1496.499712964295	423.895411835888	739.067697137678	939.742132689357	549.180108195629	802.510773620301	752.656349064339	522.774266052668	746.184357119321	637.326152150805	594.576011226719	830.524721528370	586.741624719698	515.813334261509	833.681628771582	472.288867113956	538.060131463584	769.223925528878	752.199332187307	308.470988747385	680.411978939562	633.173876816098	258.733102435190	766.632515032993	558.070049491841	322.551834703011	768.332148401314	486.735324936177	335.644569253008	738.296454466066	413.949172025460	330.954241073113	645.562662682611	301.301787020325	284.689281186989	690.620699496639	191.123078753491	359.377165751050	749.826302174239	406.598417575806	545.596184453145	625.743441038528	380.669495939785	607.117531605921	598.630671049852	274.296232843173	558.935885052441	393.511446288053	244.539366064312	531.593255445571	548.040793690633	155.181049693367	572.835935357706	439.997496847380	175.127193968410	605.686672558550	591.452903130936	33.709278126159	601.348208453849	556.796894882950	37.932571751601	404.530267408283	629.727700879975	35.281703292077	322.777388692180	713.889356478528	95.653868107666	348.372396292290	841.616748848751	41.375076535429	317.707609000701	645.617785626171	1099.485559765219	121.300783541315	811.345604774623	896.219160748292	112.779725143339	695.838048580601	1075.989535951219	703.261599167527	845.314777395355	863.968150161457	693.026619262289	
54	12.792785714286	712.815239760060	962.518767402138	275.049269765641	505.129569368814	1006.679186302340	442.858122601217	670.406136342335	1442.265567767916	269.394736166600	780.777416214435	1364.319937448565	422.188225992304	705.500470012578	1431.183362391624	603.744809612493	677.699268043999	1496.900708818324	422.463055811931	738.239823530773	940.687359674636	548.395047115167	804.767462418939	756.236299210049	521.215427394687	751.557288758976	639.991328378975	593.545095528992	836.441486400074	591.032444604389	514.141951406845	842.107236597293	476.286042513090	536.430258158778	767.161173543407	751.373032327569	307.695277053157	677.148988811416	633.144450876328	258.229154593194	762.540136437049	557.324949247079	322.196072805087	763.522615654764	486.120860973487	335.483933336609	733.276750040261	413.594192039536	330.728801659934	640.078887022070	301.316713969915	284.478314206734	684.618290642497	190.973062027903	359.268531035028	758.497743472758	409.841186334413	544.293186287014	634.366105112296	383.456019865205	605.558654366738	608.002864214017	276.757640427186	557.771239710270	403.246987919774	245.477956666821	529.951953389855	558.284358288361	157.503902928585	572.033679273590	450.071101198149	176.856639184580	604.546814735410	602.242916343663	35.656548169141	601.318535302092	550.202027436623	38.024465119088	404.468979958000	623.166035500856	35.309090542299	322.748241318530	707.379637041266	95.624360898929	348.320416740987	835.063966882955	41.219711221797	317.644022958525	652.115328400840	1100.312034434688	118.220573149365	826.035589238637	904.113776288958	110.265999625396	687.576490760655	1076.500215492387	701.678484903404	822.931274444983	854.675816545131	693.062256591436	
55	12.805857142857	712.389329439783	962.696404177056	274.330947015664	504.556805767769	1007.149868023730	441.762657584630	671.252204853806	1442.706854360738	268.060834013345	780.747060423037	1364.586223006827	421.400002094085	704.663123953561	1431.460592772799	602.596871500328	677.996422349799	1497.359181933103	421.128896225437	737.366449797247	941.697477325751	547.757663014123	806.699519289149	759.831228701925	519.856941848482	756.515158407083	642.804657398256	592.714154936112	841.797040635266	595.389831174318	512.633094947560	849.999681941651	480.532182803590	535.006968181321	765.039811497302	750.556122892263	307.206605120791	673.867182913964	633.167549996128	257.849436108714	758.343737908020	556.608154158846	322.024230147353	758.571412556320	485.538084872067	335.477114820938	728.153873898905	413.295517536946	330.609305235548	634.536649865872	301.369645351344	284.325018846470	678.582048928957	190.861598547897	359.190946150331	767.003430235014	413.071547415442	543.168024100695	643.003975793791	385.402086038423	604.112745198668	618.078702006638	278.251105338113	556.657566509401	413.820767939945	243.781128456740	528.270711168384	570.073877487749	158.727686512487	571.248861268233	461.577440572981	176.488306121751	603.403464204655	615.739256376234	37.445402695713	601.400318532003	543.599934485215	38.128022703388	404.413928798741	616.608687108124	35.344534458573	322.728031495156	700.875810091110	95.603339218364	348.272444172211	828.512948821716	41.064891890623	317.590524310031	658.499702617074	1101.261789351381	115.486148088853	840.322368125361	912.477777423952	108.155347779720	679.382480032017	1077.328613492472	700.220133984037	800.236980427715	846.797992256740	692.817582297678	
56	12.818928571429	712.084568777986	962.898043265255	273.766527458287	504.044896010450	1007.667689097669	440.748505226543	672.186122246084	1443.185734792034	266.829286460746	780.749249812154	1364.894198328848	420.755645250270	703.799434086007	1431.802291176228	601.552085112172	678.285934209538	1497.853674596727	419.896100968489	736.441221101965	942.735105215363	547.268961753554	808.312547453261	763.376138640172	518.702582649114	761.063678482257	645.696433961998	592.091217018507	846.594215499789	599.721596582718	511.292604496357	857.324474237867	484.945517493990	533.809959066499	762.869073989720	749.746224196793	306.988551980642	670.571537206667	633.234714271747	257.572058244188	754.048080211496	555.915907137368	322.007838652563	753.479914367357	484.982991632895	335.597253871086	722.931925698203	413.045805127349	330.573810927955	628.938078555494	301.453028839147	284.213906204472	672.512390280171	190.784656046410	359.136870250723	775.327717681026	416.216715224801	542.237302138212	651.672245639909	386.446761501936	602.825211036433	628.862350327258	278.740134547259	555.629379076513	425.298295255311	239.565295470508	526.624206649934	583.367225028506	158.808278491297	570.509125663177	474.509013771868	174.078097948155	602.310633644099	631.783568936269	38.893530224002	601.602638651351	536.993418146649	38.239775301214	404.365302920367	610.054912652105	35.385813259286	322.715234627617	694.375705777900	95.590544970354	348.227261514176	821.963688612954	40.914950391364	317.546579730300	664.759570819817	1102.301038622599	113.088359679836	854.145433949223	921.235775056985	106.442654354973	671.220027655116	1078.447139446990	698.882835266040	777.461773497543	840.374945821915	692.339136079500	
